<mxfile host="app.diagrams.net" modified="2024-03-17T08:58:27.744Z" agent="Mozilla/5.0 (Windows NT 10.0; Win64; x64) AppleWebKit/537.36 (KHTML, like Gecko) Chrome/122.0.0.0 Safari/537.36" etag="asyAZCUXzN5zaxH5RgC6" version="24.0.0" type="github">
  <diagram name="Страница — 1" id="YcTGnenPpbwpRB6gLI4-">
    <mxGraphModel dx="992" dy="506" grid="0" gridSize="10" guides="1" tooltips="1" connect="1" arrows="1" fold="1" page="1" pageScale="1" pageWidth="827" pageHeight="1169" math="0" shadow="0">
      <root>
        <mxCell id="0" />
        <mxCell id="1" parent="0" />
        <mxCell id="UIMs9c8PX9pT-olhsf5S-2" value="Личный кабинет" style="ellipse;whiteSpace=wrap;html=1;" vertex="1" parent="1">
          <mxGeometry x="520" y="65" width="120" height="70" as="geometry" />
        </mxCell>
        <mxCell id="UIMs9c8PX9pT-olhsf5S-19" value="БД клиентов" style="ellipse;shape=umlEntity;whiteSpace=wrap;html=1;" vertex="1" parent="1">
          <mxGeometry x="602" y="293" width="90" height="92" as="geometry" />
        </mxCell>
        <mxCell id="UIMs9c8PX9pT-olhsf5S-29" style="rounded=0;orthogonalLoop=1;jettySize=auto;html=1;endArrow=none;endFill=0;" edge="1" parent="1" source="UIMs9c8PX9pT-olhsf5S-20" target="UIMs9c8PX9pT-olhsf5S-21">
          <mxGeometry relative="1" as="geometry" />
        </mxCell>
        <mxCell id="UIMs9c8PX9pT-olhsf5S-20" value="Интерфейс личного кабинета" style="shape=umlBoundary;whiteSpace=wrap;html=1;" vertex="1" parent="1">
          <mxGeometry x="208" y="303" width="115" height="93" as="geometry" />
        </mxCell>
        <mxCell id="UIMs9c8PX9pT-olhsf5S-30" style="rounded=0;orthogonalLoop=1;jettySize=auto;html=1;dashed=1;" edge="1" parent="1" source="UIMs9c8PX9pT-olhsf5S-21" target="UIMs9c8PX9pT-olhsf5S-19">
          <mxGeometry relative="1" as="geometry" />
        </mxCell>
        <mxCell id="UIMs9c8PX9pT-olhsf5S-21" value="Получение и добавление информации в БД" style="ellipse;shape=umlControl;whiteSpace=wrap;html=1;" vertex="1" parent="1">
          <mxGeometry x="403" y="299" width="102" height="94" as="geometry" />
        </mxCell>
        <mxCell id="UIMs9c8PX9pT-olhsf5S-27" value="Клиент" style="shape=umlActor;verticalLabelPosition=bottom;verticalAlign=top;html=1;outlineConnect=0;" vertex="1" parent="1">
          <mxGeometry x="76" y="303" width="30" height="60" as="geometry" />
        </mxCell>
        <mxCell id="UIMs9c8PX9pT-olhsf5S-28" style="rounded=0;orthogonalLoop=1;jettySize=auto;html=1;exitX=1;exitY=0.3333333333333333;exitDx=0;exitDy=0;exitPerimeter=0;entryX=-0.031;entryY=0.497;entryDx=0;entryDy=0;entryPerimeter=0;endArrow=none;endFill=0;" edge="1" parent="1" source="UIMs9c8PX9pT-olhsf5S-27" target="UIMs9c8PX9pT-olhsf5S-20">
          <mxGeometry relative="1" as="geometry" />
        </mxCell>
      </root>
    </mxGraphModel>
  </diagram>
</mxfile>
